HIERARCHY
ROOT Hips
{
  OFFSET 0.000000 0.000000 0.000000
  CHANNELS 6 Xposition Yposition Zposition Zrotation Xrotation Yrotation
  JOINT RightUpLeg
  {
    OFFSET -6.592170 -8.933628 1.738860
    CHANNELS 3 Zrotation Xrotation Yrotation
    JOINT RightLeg
    {
      OFFSET -6.454057 -27.905268 26.890057
      CHANNELS 3 Zrotation Xrotation Yrotation
      JOINT RightFoot
      {
        OFFSET -3.882407 -37.413986 -22.508755
        CHANNELS 3 Zrotation Xrotation Yrotation
        JOINT RightToeBase
        {
          OFFSET -4.875326 -7.452132 11.654479
          CHANNELS 3 Zrotation Xrotation Yrotation
          End Site
          {
            OFFSET 0.000000 4.000000 0.000000
          }
        }
      }
    }
  }
  JOINT LeftUpLeg
  {
    OFFSET 6.002509 -8.547020 -0.722817
    CHANNELS 3 Zrotation Xrotation Yrotation
    JOINT LeftLeg
    {
      OFFSET 18.636345 -29.557245 21.256510
      CHANNELS 3 Zrotation Xrotation Yrotation
      JOINT LeftFoot
      {
        OFFSET -4.770453 -37.590309 -21.467318
        CHANNELS 3 Zrotation Xrotation Yrotation
        JOINT LeftToeBase
        {
          OFFSET 10.426028 -5.388007 9.378107
          CHANNELS 3 Zrotation Xrotation Yrotation
          End Site
          {
            OFFSET 0.000000 4.000000 0.000000
          }
        }
      }
    }
  }
  JOINT Spine
  {
    OFFSET -1.419174 11.483073 -5.393825
    CHANNELS 3 Zrotation Xrotation Yrotation
    JOINT Spine1
    {
      OFFSET 1.559404 11.256493 7.816071
      CHANNELS 3 Zrotation Xrotation Yrotation
      JOINT Spine2
      {
        OFFSET 1.083684 3.658283 3.974402
        CHANNELS 3 Zrotation Xrotation Yrotation
        JOINT Neck
        {
          OFFSET 1.992149 20.584833 8.428371
          CHANNELS 3 Zrotation Xrotation Yrotation
          JOINT Head
          {
            OFFSET 1.336749 6.028581 8.084390
            CHANNELS 3 Zrotation Xrotation Yrotation
            End Site
            {
              OFFSET 0.000000 4.000000 0.000000
            }
          }
        }
        JOINT RightShoulder
        {
          OFFSET -6.570219 11.623562 5.741563
          CHANNELS 3 Zrotation Xrotation Yrotation
          JOINT RightArm
          {
            OFFSET -10.331978 -1.217341 6.248501
            CHANNELS 3 Zrotation Xrotation Yrotation
            JOINT RightForeArm
            {
              OFFSET -10.300530 -23.536659 -0.654693
              CHANNELS 3 Zrotation Xrotation Yrotation
              JOINT RightHand
              {
                OFFSET 21.243015 -13.608623 8.685975
                CHANNELS 3 Zrotation Xrotation Yrotation
                End Site
                {
                  OFFSET 0.000000 4.000000 0.000000
                }
              }
            }
          }
        }
        JOINT LeftShoulder
        {
          OFFSET 7.732532 11.029196 1.792949
          CHANNELS 3 Zrotation Xrotation Yrotation
          JOINT LeftArm
          {
            OFFSET 12.746316 -0.550520 0.112155
            CHANNELS 3 Zrotation Xrotation Yrotation
            JOINT LeftForeArm
            {
              OFFSET 6.879200 -21.077091 -13.354437
              CHANNELS 3 Zrotation Xrotation Yrotation
              JOINT LeftHand
              {
                OFFSET -4.703738 -10.467428 18.199038
                CHANNELS 3 Zrotation Xrotation Yrotation
                End Site
                {
                  OFFSET 0.000000 4.000000 0.000000
                }
              }
            }
          }
        }
      }
    }
  }
}
MOTION
Frames: 8
Frame Time: 0.050000
-21.830414 11.448807 15.189059 -22.681615 20.917617 -4.430632 23.958570 47.193877 6.428220 44.715897 -64.179484 37.774392 -24.228060 51.892702 -37.176758 34.131200 -34.384211 62.429641 -10.162957 -0.142205 -6.688061 64.259561 -35.327740 24.492438 -65.092541 39.748325 -47.482142 30.749161 27.301220 76.957958 54.627969 -49.268212 25.441037 12.249566 -1.754996 -29.329573 -24.961583 3.133201 34.462298 12.461125 -24.077900 -35.307849 -45.572943 26.111682 46.917828 -18.602432 32.488385 -71.587825 19.584917 -15.083842 84.251411 70.703310 -56.351719 -25.877651 -76.724944 16.457995 53.423566 -2.745355 18.378652 -81.267596 31.407186 -21.463725 85.541566 -51.479186 47.588301 -44.024748 29.652030 41.042134 79.915258
-22.072533 11.672157 18.023159 -23.289247 21.946273 -4.262822 23.639909 46.688121 5.918067 48.115044 -61.899305 40.006316 -21.100627 54.726408 -37.760306 34.998850 -40.017445 63.653960 -9.686728 -0.168398 -5.717299 64.010493 -35.341700 23.973715 -64.172823 38.674328 -48.437479 31.007106 27.034196 76.479271 55.406202 -49.112140 26.042195 12.468405 -2.533645 -29.148016 -25.289822 3.710122 34.346662 12.606251 -25.100699 -35.468152 -46.120596 25.901896 47.538369 -20.401227 31.946580 -71.632473 17.310841 -16.188083 83.737401 74.301028 -58.435245 -24.744074 -76.336226 16.191740 55.683368 -3.015310 17.644455 -82.450333 32.987533 -21.533478 87.587748 -52.441198 46.518392 -43.717324 28.534795 43.558173 80.229684
-22.237698 11.912292 20.786551 -23.847353 23.018396 -4.046457 23.071288 45.738049 4.802077 51.525220 -59.372313 42.585039 -18.262895 57.038509 -38.008749 35.261211 -44.541163 63.996347 -9.122849 -0.140300 -4.450401 63.529373 -35.768199 23.420724 -64.084960 38.422566 -49.027340 32.195634 26.874092 76.185660 56.156673 -49.100302 26.728670 12.658810 -3.325358 -28.876918 -25.676532 4.361166 34.205392 12.825214 -26.054900 -35.669969 -46.593882 25.677652 48.084315 -21.954159 31.540063 -72.227993 15.904343 -16.005287 83.796390 76.781918 -59.881709 -23.541487 -76.031733 15.998835 57.406743 -3.141287 16.888294 -84.055414 34.187109 -21.389558 90.102611 -52.422948 47.092761 -44.024227 28.106484 44.674183 80.940715
-22.280554 12.002391 23.256710 -24.458722 24.273452 -3.758789 22.492372 44.202647 3.613296 52.833572 -54.724718 41.997537 -14.357214 59.127248 -38.196281 35.949012 -51.582394 64.840450 -8.465311 -0.322142 -3.198189 62.751528 -36.838062 23.213250 -64.573518 39.595240 -49.334757 34.113857 26.989840 76.361585 56.903555 -48.939991 27.341103 13.160893 -4.463318 -29.214852 -26.959465 4.553626 35.073475 14.024034 -26.515538 -38.076967 -47.370535 23.098602 49.527690 -24.334442 31.080373 -72.874939 13.861347 -16.215398 83.676133 79.917763 -61.337913 -22.793730 -74.521319 16.028378 59.546621 -3.273632 16.279826 -86.511959 38.389563 -22.050356 94.952194 -52.241327 48.644238 -43.153199 26.945912 47.142840 81.834656
-22.328503 12.071424 25.289053 -24.982272 25.678725 -3.361625 21.852689 42.285161 2.120370 55.027415 -53.911300 45.070022 -12.913385 59.909381 -42.696232 38.900532 -48.627863 68.645607 -7.986870 -0.573716 -2.087436 62.498657 -37.321078 22.646767 -64.051479 38.692775 -50.384082 34.443209 26.918679 76.239865 57.624980 -49.120964 28.184424 13.383681 -5.589857 -28.752448 -27.769748 5.616758 34.983961 14.415190 -27.871496 -38.055773 -47.749256 23.035546 49.935113 -25.840789 30.618768 -74.433164 11.782061 -16.678870 84.188806 84.045015 -62.325938 -20.429003 -73.297579 16.108928 61.146141 -3.491181 15.366407 -89.230289 41.692509 -22.024566 99.982902 -52.655229 46.919575 -44.156744 23.868308 52.577417 83.334289
-22.285948 12.151879 26.955765 -25.361786 26.917151 -2.967071 21.459224 40.898755 1.018170 55.903211 -54.888181 47.979945 -10.832216 60.195058 -48.317065 41.324836 -43.845451 72.014534 -7.546305 -0.970698 -1.254145 62.399468 -37.971933 22.273596 -64.232614 38.370376 -50.588674 35.049963 26.808491 76.053842 58.160336 -49.411040 28.949122 13.626207 -6.698442 -28.429011 -28.705504 6.615499 35.090521 14.765819 -29.781796 -38.112470 -48.619026 23.382089 50.744958 -27.386781 30.279928 -75.747044 9.593403 -17.048999 84.463562 88.651166 -63.095557 -17.553498 -72.123423 16.222512 62.636200 -3.647337 14.653992 -91.832470 45.002128 -22.058489 105.268918 -52.237800 45.864555 -45.775202 20.339541 57.611105 85.459177
-22.199757 12.199820 28.329069 -25.501800 27.993022 -2.557167 21.161527 40.011699 -0.005044 55.968374 -56.868662 50.760800 -8.197457 59.987853 -52.748731 41.952879 -39.444399 73.132526 -7.419234 -1.291979 -0.742740 62.343213 -38.440664 21.972512 -63.942221 37.723923 -50.977996 35.160428 26.659112 75.809755 58.091152 -49.614535 29.296644 13.849366 -7.661784 -27.986518 -29.500753 7.406325 35.100217 15.193196 -31.390556 -38.116856 -49.204133 23.628621 51.284816 -28.684366 29.934441 -76.895134 7.612338 -17.235001 84.615604 92.034371 -63.819839 -15.613221 -70.866326 16.375939 64.243365 -3.772191 14.092681 -94.055922 48.152914 -22.161644 110.328775 -51.548369 44.093290 -48.069990 15.253045 63.157738 88.572630
-22.073750 12.305885 29.454014 -25.880565 29.330709 -2.086441 21.115237 39.112959 -0.526847 54.708865 -60.048726 53.072143 -5.261846 58.779761 -55.306118 40.642436 -35.215357 71.592337 -7.340144 -1.900097 -0.619933 62.647311 -38.013278 21.545938 -62.082961 34.959222 -52.885405 33.128707 26.655264 75.806861 58.168161 -49.972050 30.011177 13.752525 -8.376600 -26.549556 -29.564126 8.740957 33.981238 15.144659 -33.214359 -36.114612 -48.999367 25.914420 50.510236 -30.483487 29.577429 -77.572349 5.767428 -17.511248 84.547040 99.108007 -62.657062 -10.100546 -70.078423 16.658730 63.495274 -3.628113 13.409770 -95.654839 48.992348 -21.931926 113.291423 -51.994435 39.271332 -51.365475 6.910751 69.450713 93.852864
